<?xml version="1.0" encoding="UTF-8" standalone="no"?>
<!-- Created with Inkscape (http://www.inkscape.org/) -->

<svg
   xmlns:osb="http://www.openswatchbook.org/uri/2009/osb"
   xmlns:dc="http://purl.org/dc/elements/1.1/"
   xmlns:cc="http://creativecommons.org/ns#"
   xmlns:rdf="http://www.w3.org/1999/02/22-rdf-syntax-ns#"
   xmlns:svg="http://www.w3.org/2000/svg"
   xmlns="http://www.w3.org/2000/svg"
   xmlns:sodipodi="http://sodipodi.sourceforge.net/DTD/sodipodi-0.dtd"
   xmlns:inkscape="http://www.inkscape.org/namespaces/inkscape"
   width="64px"
   height="64px"
   id="svg3854"
   version="1.1"
   inkscape:version="0.48.4 r9939"
   sodipodi:docname="sar-status.svg"
   inkscape:export-filename="/home/kennethg/src/git/rescue-me/src/img/rescueme.png"
   inkscape:export-xdpi="363.22"
   inkscape:export-ydpi="363.22">
  <defs
     id="defs3856">
    <linearGradient
       id="linearGradient4374"
       osb:paint="solid">
      <stop
         style="stop-color:#000000;stop-opacity:1;"
         offset="0"
         id="stop4376" />
    </linearGradient>
  </defs>
  <sodipodi:namedview
     id="base"
     pagecolor="#ffffff"
     bordercolor="#666666"
     borderopacity="1.0"
     inkscape:pageopacity="0.0"
     inkscape:pageshadow="2"
     inkscape:zoom="5.713423"
     inkscape:cx="-17.36812"
     inkscape:cy="16.231519"
     inkscape:current-layer="layer1"
     showgrid="true"
     inkscape:document-units="px"
     inkscape:grid-bbox="true"
     inkscape:window-width="1855"
     inkscape:window-height="1176"
     inkscape:window-x="1985"
     inkscape:window-y="24"
     inkscape:window-maximized="1" />
  <metadata
     id="metadata3859">
    <rdf:RDF>
      <cc:Work
         rdf:about="">
        <dc:format>image/svg+xml</dc:format>
        <dc:type
           rdf:resource="http://purl.org/dc/dcmitype/StillImage" />
        <dc:title />
      </cc:Work>
    </rdf:RDF>
  </metadata>
  <g
     id="layer1"
     inkscape:label="Layer 1"
     inkscape:groupmode="layer">
    <g
       id="g4172"
       clip-path="none"
       transform="matrix(0.94974118,-0.18694835,0.1870619,1.0272117,88.055618,22.900419)">
      <path
         sodipodi:nodetypes="cccsccsccccccsccsccc"
         inkscape:connector-curvature="0"
         d="m -52.039357,-31.339954 c -1.414903,-0.415768 -2.857825,0.357307 -3.227502,1.7292 -0.383476,1.370589 0.453167,2.813511 1.871387,3.227502 7.455666,2.196342 13.686071,7.07074 17.55386,13.741354 3.875482,6.6838828 4.915213,14.3479841 2.933305,21.5920034 -0.379629,1.3772236 0.457014,2.8201456 1.875234,3.2341366 0.702209,0.206344 1.414875,0.115803 1.998679,-0.196982 0.583803,-0.312784 1.045377,-0.851366 1.222189,-1.528663 2.350387,-8.5804899 1.118135,-17.6413377 -3.465128,-25.545899 -4.568404,-7.886438 -11.942995,-13.669446 -20.762024,-16.252652 z m -2.882269,10.534902 c -1.412979,-0.41245 -2.855902,0.360625 -3.23082,1.730977 -0.372994,1.37367 0.463649,2.816592 1.875234,3.234137 4.557207,1.336378 8.369434,4.319632 10.735113,8.3996199 2.36568,4.0799878 3.004006,8.7724181 1.791446,13.2044127 -0.371071,1.3769864 0.463649,2.8165924 1.873311,3.2308199 0.709904,0.2196122 1.423433,0.1155646 1.997285,-0.191888 0.583803,-0.3127845 1.051148,-0.8414141 1.223583,-1.5337574 1.576328,-5.7615935 0.755961,-11.8476909 -2.319422,-17.151675 -3.072064,-5.3057621 -8.024101,-9.1825821 -13.94573,-10.9226461 z"
         id="path3327"
         clip-path="none" />
    </g>
    <g
       id="g3329"
       transform="matrix(3.7974985,0,0,3.7974985,-1.9752069,-3.7875151)" />
    <g
       id="g3331"
       transform="matrix(3.7974985,0,0,3.7974985,-1.9752069,-3.7875151)" />
    <g
       id="g3333"
       transform="matrix(3.7974985,0,0,3.7974985,-1.9752069,-3.7875151)" />
    <g
       id="g3335"
       transform="matrix(3.7974985,0,0,3.7974985,-1.9752069,-3.7875151)" />
    <g
       id="g3337"
       transform="matrix(3.7974985,0,0,3.7974985,-1.9752069,-3.7875151)" />
    <g
       id="g3339"
       transform="matrix(3.7974985,0,0,3.7974985,-1.9752069,-3.7875151)" />
    <g
       id="g3341"
       transform="matrix(3.7974985,0,0,3.7974985,-1.9752069,-3.7875151)" />
    <g
       id="g3343"
       transform="matrix(3.7974985,0,0,3.7974985,-1.9752069,-3.7875151)" />
    <g
       id="g3345"
       transform="matrix(3.7974985,0,0,3.7974985,-1.9752069,-3.7875151)" />
    <g
       id="g3347"
       transform="matrix(3.7974985,0,0,3.7974985,-1.9752069,-3.7875151)" />
    <g
       id="g3349"
       transform="matrix(3.7974985,0,0,3.7974985,-1.9752069,-3.7875151)" />
    <g
       id="g3351"
       transform="matrix(3.7974985,0,0,3.7974985,-1.9752069,-3.7875151)" />
    <g
       id="g3353"
       transform="matrix(3.7974985,0,0,3.7974985,-1.9752069,-3.7875151)" />
    <g
       id="g3355"
       transform="matrix(3.7974985,0,0,3.7974985,-1.9752069,-3.7875151)" />
    <g
       id="g3357"
       transform="matrix(3.7974985,0,0,3.7974985,-1.9752069,-3.7875151)" />
    <path
       inkscape:connector-curvature="0"
       d="m 37.947967,36.800175 v -7.355762 c 0,-1.560315 -0.980768,-2.674824 -2.585661,-2.853144 -0.267486,-0.0446 -0.490387,-0.0446 -0.757867,-0.08917 -1.025352,-0.13373 -1.961537,-0.222903 -2.853145,-0.445804 -3.343531,-0.757869 -6.553317,-2.229022 -10.119752,-4.725525 -0.534964,-0.445801 -1.11451,-0.802448 -1.916958,-0.802448 -0.847026,0 -1.381993,0.401228 -1.961539,0.757868 -4.770099,3.298948 -9.0498199,4.948426 -13.5078555,5.215909 -1.2928314,0.04461 -2.8531457,0.624123 -2.8531457,3.031464 0,1.471154 0,2.942308 0,4.413461 0,2.897725 0,5.929194 0,8.91608 0,1.159091 0.1337396,2.407342 0.4458041,3.744751 0.6687061,2.942309 2.1844397,5.617135 4.7255222,8.158214 3.120628,3.165209 7.0437019,5.617131 12.0367079,7.489507 0.04461,0 0.04461,0 0.08917,0.04461 0.312062,0.08917 0.668704,0.178328 0.980764,0.178328 h 0 c 0.445806,0 0.891613,-0.08917 1.292837,-0.267479 0.401221,-0.178327 0.802443,-0.356646 1.248249,-0.534968 1.02535,-0.4458 2.139861,-0.93619 3.209787,-1.471152 3.967656,-2.095278 6.999122,-4.591782 9.272724,-7.667831 2.006118,-2.630243 3.076044,-5.438806 3.209787,-8.381114 0.08917,-1.961538 0.08917,-3.967656 0.08917,-5.929192 -0.04461,-0.490391 -0.04461,-0.936195 -0.04461,-1.426576 z m -4.056816,7.17745 c -0.08917,2.139857 -0.891609,4.145973 -2.407338,6.15209 -1.916959,2.585663 -4.502623,4.725522 -7.890732,6.508744 -0.980769,0.490379 -2.006117,0.936183 -2.986888,1.337408 -0.312062,0.133733 -0.624124,0.267483 -0.936187,0.401221 -4.235138,-1.649473 -7.578668,-3.74475 -10.2089129,-6.374994 -2.006116,-2.050698 -3.165206,-4.056818 -3.70017,-6.241257 -0.267483,-1.114509 -0.356644,-2.050696 -0.356644,-2.942306 -0.04459,-2.942308 0,-5.973772 0,-8.871498 0,-1.159091 0,-2.362761 0,-3.52185 4.7701009,-0.445807 9.3618809,-2.273598 14.3103049,-5.617131 3.878497,2.674823 7.44493,4.279719 11.189682,5.126746 1.025347,0.222901 2.095276,0.356642 3.076049,0.490385 v 6.374992 c 0,0.490388 0,0.980772 0,1.471156 0,1.872376 0,3.789331 -0.08917,5.706294 z m -11.992123,5.795449 c 0.04461,1.203669 -1.025349,2.22902 -2.229022,2.22902 -1.24825,0 -2.273602,-1.025351 -2.273602,-2.273604 0,-1.248252 1.025352,-2.273599 2.273602,-2.273599 1.248252,0 2.31818,1.025347 2.229022,2.318183 z M 21.765296,32.787942 c 0.133732,0.356644 0.222901,0.713288 0.222901,1.114511 -0.04461,1.114511 -0.133732,2.2736 -0.222901,3.388112 -0.08914,1.738634 -0.222903,3.521849 -0.312063,5.260484 -0.04461,0.579545 -0.04461,1.069929 -0.04461,1.649474 -0.04461,0.936189 -0.757868,1.649474 -1.694054,1.649474 -0.936188,0 -1.649477,-0.668704 -1.694056,-1.604892 -0.133733,-2.719403 -0.312065,-5.438808 -0.445806,-8.158214 -0.0446,-0.713284 -0.08914,-1.426571 -0.133731,-2.184437 0,-1.203673 0.668704,-2.184439 1.738638,-2.496506 1.02535,-0.178325 2.139856,0.356645 2.585661,1.381994 z"
       id="path4177" />
  </g>
</svg>
