<?xml version="1.0" standalone="no"?>
<!DOCTYPE svg PUBLIC "-//W3C//DTD SVG 20010904//EN"
 "http://www.w3.org/TR/2001/REC-SVG-20010904/DTD/svg10.dtd">
<svg version="1.0" xmlns="http://www.w3.org/2000/svg"
 width="700.000000pt" height="700.000000pt" viewBox="0 0 700.000000 700.000000"
 preserveAspectRatio="xMidYMid meet">
<metadata>
Created by potrace 1.11, written by Peter Selinger 2001-2013
</metadata>
<g transform="translate(0.000000,700.000000) scale(0.100000,-0.100000)"
fill="#000000" stroke="none">
<path d="M3485 6942 c-205 -59 -268 -325 -114 -483 64 -66 105 -82 259 -104
132 -18 276 -49 404 -86 38 -12 77 -22 86 -24 10 -2 84 -29 166 -60 284 -110
536 -250 779 -434 55 -42 102 -78 105 -81 3 -3 41 -37 85 -75 363 -319 682
-761 870 -1205 15 -36 34 -80 42 -98 68 -156 174 -553 198 -742 3 -25 8 -56
10 -70 8 -38 14 -104 21 -230 7 -114 7 -171 4 -390 -1 -63 0 -124 3 -136 20
-81 100 -180 170 -209 137 -57 288 -2 352 129 29 59 38 146 38 371 0 129 -9
361 -17 400 -2 11 -7 51 -11 89 -4 38 -9 79 -10 90 -2 12 -11 66 -20 121 -9
55 -20 114 -25 130 -5 17 -12 44 -14 60 -23 135 -102 392 -186 605 -98 247
-281 590 -427 798 -56 80 -192 261 -213 283 -8 8 -31 35 -50 58 -118 144 -368
388 -525 511 -39 30 -72 57 -75 60 -7 8 -132 96 -214 150 -180 120 -402 238
-608 325 -178 75 -482 171 -634 200 -194 37 -266 48 -369 59 -17 1 -53 -4 -80
-12z"/>
<path d="M3400 5701 c-130 -43 -195 -135 -194 -276 1 -94 22 -148 83 -212 54
-56 110 -79 247 -102 541 -91 984 -377 1308 -845 161 -231 275 -509 327 -796
29 -164 31 -183 34 -402 l2 -208 32 -64 c90 -182 318 -224 449 -82 69 75 77
111 77 351 0 116 -4 239 -8 275 -4 36 -10 85 -13 110 -16 140 -92 439 -144
565 -7 17 -16 39 -20 50 -203 531 -617 1023 -1106 1313 -185 110 -415 209
-594 257 -14 3 -41 11 -60 16 -157 42 -369 67 -420 50z"/>
<path d="M2110 4748 c-57 -10 -107 -36 -251 -130 -388 -255 -767 -420 -1094
-477 -137 -24 -126 -22 -270 -36 -148 -14 -211 -39 -269 -106 -74 -87 -71 -45
-71 -979 0 -459 4 -866 8 -905 14 -117 65 -334 96 -410 123 -296 242 -475 466
-700 261 -262 539 -458 900 -635 235 -116 427 -191 502 -197 87 -8 148 11 403
125 372 165 714 381 930 588 30 29 73 70 95 91 60 57 164 178 232 268 226 300
339 591 359 928 7 120 6 1620 -2 1671 -17 117 -121 220 -244 241 -71 12 -150
23 -215 30 -44 4 -80 10 -185 30 -84 15 -292 78 -405 122 -88 35 -320 144
-380 180 -124 73 -254 155 -332 209 -128 89 -183 108 -273 92z m93 -494 c74
-50 228 -144 237 -144 4 0 10 -3 12 -8 10 -23 350 -187 520 -251 132 -49 342
-114 403 -124 17 -3 41 -8 55 -11 26 -6 47 -9 165 -26 39 -6 82 -13 96 -16
l26 -5 -3 -712 c-3 -853 -4 -859 -50 -1014 -115 -386 -482 -792 -969 -1075
-172 -99 -526 -252 -563 -243 -42 10 -292 124 -392 178 -158 85 -386 228 -410
257 -3 3 -21 17 -40 30 -48 34 -193 162 -260 230 -123 125 -231 273 -299 409
-41 81 -95 232 -107 295 -3 17 -11 65 -19 106 -10 57 -13 252 -14 808 -1 402
2 732 6 733 4 0 17 2 28 4 11 3 45 7 75 11 205 23 509 108 740 206 194 82 480
237 655 354 27 19 54 34 60 34 6 0 27 -11 48 -26z"/>
<path d="M2048 3543 c-51 -29 -81 -61 -111 -116 -20 -38 -22 -56 -21 -172 0
-115 7 -269 19 -435 2 -30 6 -111 10 -180 3 -69 8 -154 10 -190 2 -36 7 -121
11 -190 8 -162 31 -217 107 -257 34 -17 111 -19 152 -3 44 16 94 69 105 110 5
19 12 98 15 175 3 77 7 169 10 205 6 86 14 215 20 325 5 97 10 172 21 335 11
153 8 204 -16 257 -59 135 -219 200 -332 136z"/>
<path d="M2051 1784 c-192 -90 -193 -361 -2 -447 157 -70 334 36 345 206 5 79
-17 138 -70 191 -75 75 -179 94 -273 50z"/>
</g>
</svg>
