<?xml version="1.0" encoding="utf-8"?>
<!-- Generator: Adobe Illustrator 16.0.0, SVG Export Plug-In . SVG Version: 6.00 Build 0)  -->
<!DOCTYPE svg PUBLIC "-//W3C//DTD SVG 1.1//EN" "http://www.w3.org/Graphics/SVG/1.1/DTD/svg11.dtd">
<svg version="1.1" id="Layer_1" xmlns="http://www.w3.org/2000/svg" xmlns:xlink="http://www.w3.org/1999/xlink" x="0px" y="0px"
	 width="374.951px" height="87.316px" viewBox="0 0 374.951 87.316" enable-background="new 0 0 374.951 87.316"
	 xml:space="preserve">
<g>
	<g>
		<path d="M115.541,11.413c2.901-0.474,7.223-0.829,12.018-0.829c5.92,0,10.064,0.888,12.906,3.137
			c2.368,1.895,3.67,4.677,3.67,8.348c0,5.091-3.611,8.584-7.045,9.827v0.177c2.783,1.125,4.322,3.789,5.328,7.459
			c1.243,4.499,2.486,9.709,3.256,11.248h-9.235c-0.651-1.125-1.657-4.381-2.782-9.294c-1.125-4.973-2.782-6.394-6.453-6.394h-2.723
			v15.688h-8.939V11.413z M124.48,28.581h3.552c4.499,0,7.163-2.25,7.163-5.742c0-3.67-2.486-5.506-6.63-5.565
			c-2.19,0-3.434,0.178-4.084,0.296V28.581z"/>
	</g>
	<g>
		<path d="M163.848,21.181c2.545,0,4.973,0.474,6.986,1.539l2.782-4.085l3.138,2.19l-2.664,3.967
			c3.078,2.664,4.854,6.571,4.854,11.425c0,10.301-7.578,15.215-15.096,15.215c-2.486,0-4.854-0.474-6.867-1.54l-2.901,4.204
			l-2.96-2.368l2.605-3.848c-3.138-2.545-5.032-6.453-5.032-11.544c0-9.117,6.157-15.155,15.096-15.155H163.848z M167.044,28.64
			c-0.888-0.651-1.895-1.065-3.197-1.065c-4.677,0-6.453,4.677-6.453,8.703c0,1.598,0.296,3.315,1.065,4.618l0.118,0.059
			L167.044,28.64z M160.829,43.914c0.829,0.77,1.894,1.065,3.019,1.065c4.025,0,6.453-3.434,6.453-8.525
			c0-1.42-0.237-3.137-0.888-4.499l-0.178-0.059L160.829,43.914z"/>
	</g>
	<g>
		<path d="M212.509,8.749v33.389c0,3.256,0.118,6.689,0.237,8.643h-7.992l-0.415-4.262h-0.118c-1.835,3.256-5.328,4.914-9.058,4.914
			c-6.867,0-12.373-5.861-12.373-14.859c0-9.768,6.039-15.392,12.965-15.392c3.552,0,6.334,1.243,7.637,3.256h0.119V8.749H212.509z
			 M203.511,34.087c0-0.474-0.059-1.125-0.119-1.599c-0.533-2.427-2.486-4.44-5.269-4.44c-4.085,0-6.216,3.67-6.216,8.229
			c0,4.914,2.427,7.992,6.157,7.992c2.605,0,4.677-1.776,5.21-4.321c0.178-0.651,0.237-1.303,0.237-2.072V34.087z"/>
	</g>
	<g>
		<path d="M226.658,39.119c0.296,3.73,3.967,5.506,8.17,5.506c3.078,0,5.564-0.415,7.992-1.184l1.184,6.098
			c-2.96,1.184-6.571,1.835-10.479,1.835c-9.827,0-15.451-5.742-15.451-14.8c0-7.341,4.559-15.451,14.622-15.451
			c9.354,0,12.906,7.281,12.906,14.445c0,1.598-0.178,2.901-0.296,3.611L226.658,39.119z M237.254,32.962
			c0-2.19-0.947-5.861-5.091-5.861c-3.789,0-5.328,3.493-5.565,5.861H237.254z"/>
	</g>
	<g>
		<path d="M263.243,10.88h8.939v17.642h0.178c0.888-1.539,1.775-2.96,2.723-4.381l9.058-13.261h11.07l-13.201,16.99l13.912,22.911
			h-10.538l-9.768-17.228l-3.434,4.204v13.024h-8.939V10.88z"/>
	</g>
	<g>
		<path d="M311.431,51.433c-8.466,0-14.979-5.565-14.979-14.918c0-9.354,6.157-15.333,15.452-15.333c8.88,0,14.8,6.098,14.8,14.8
			c0,10.597-7.519,15.452-15.215,15.452H311.431z M311.608,44.979c3.493,0,5.743-3.493,5.743-8.702c0-4.322-1.658-8.703-5.743-8.703
			c-4.321,0-5.92,4.44-5.92,8.703c0,4.973,2.072,8.702,5.861,8.702H311.608z"/>
	</g>
	<g>
		<path d="M332.269,31.364c0-4.263-0.119-7.045-0.237-9.531h7.755l0.296,5.328h0.237c1.48-4.203,5.032-5.979,7.814-5.979
			c0.829,0,1.243,0,1.895,0.118v8.466c-0.711-0.118-1.48-0.237-2.486-0.237c-3.315,0-5.565,1.776-6.157,4.559
			c-0.118,0.592-0.178,1.302-0.178,2.013v14.682h-8.998L332.269,31.364z"/>
	</g>
	<g>
		<path d="M354.645,42.908c1.658,1.006,5.092,2.19,7.756,2.19c2.723,0,3.848-0.947,3.848-2.427s-0.888-2.25-4.263-3.315
			c-5.979-2.013-8.229-5.269-8.229-8.702c0-5.387,4.559-9.472,11.781-9.472c3.374,0,6.394,0.77,8.169,1.658l-1.599,6.216
			c-1.302-0.71-3.788-1.658-6.274-1.658c-2.19,0-3.434,0.888-3.434,2.368c0,1.362,1.124,2.131,4.677,3.315
			c5.505,1.894,7.814,4.677,7.873,8.939c0,5.387-4.262,9.413-12.55,9.413c-3.789,0-7.164-0.888-9.354-2.072L354.645,42.908z"/>
	</g>
</g>
<text transform="matrix(1 0 0 1 212.8042 51.2349)" display="none" font-family="'XMyriadFet-Regular'" font-size="74">rKors</text>
<g>
	<g>
		<rect x="28.88" fill="#ED1C24" width="28.884" height="86.646"/>
	</g>
	<g>
		<rect y="28.88" fill="#ED1C24" width="86.645" height="28.885"/>
	</g>
</g>
<g>
	<path d="M120.32,61.624v7.542h7.281v-7.542h4.409v19.551h-4.409v-8.151h-7.281v8.151h-4.409V61.624H120.32z"/>
	<path d="M132.817,83.931c1.131-0.087,2.06-0.349,2.611-0.929c0.638-0.667,0.87-1.798,0.87-4.612V66.99h4.409v12.474
		c0,3.074-0.667,4.96-2.001,6.178c-1.306,1.189-3.365,1.74-5.454,1.74L132.817,83.931z M138.444,65.134
		c-1.479,0-2.437-1.044-2.437-2.35c0-1.334,0.986-2.35,2.495-2.35s2.437,1.016,2.465,2.35c0,1.306-0.957,2.35-2.495,2.35H138.444z"
		/>
	<path d="M147.55,75.46c0.145,1.856,1.944,2.728,4.003,2.728c1.509,0,2.727-0.203,3.916-0.609l0.58,2.987
		c-1.45,0.609-3.22,0.899-5.134,0.899c-4.815,0-7.571-2.784-7.571-7.252c0-3.597,2.263-7.57,7.165-7.57
		c4.583,0,6.323,3.567,6.323,7.077c0,0.755-0.087,1.422-0.145,1.77L147.55,75.46z M152.742,72.443c0-1.044-0.464-2.871-2.466-2.871
		c-1.885,0-2.639,1.711-2.755,2.871H152.742z"/>
	<path d="M159.468,60.58h4.409v20.595h-4.409V60.58z"/>
	<path d="M167.414,71.747c0-1.856-0.058-3.422-0.116-4.757h3.829l0.203,1.973h0.058c1.044-1.479,2.669-2.292,4.729-2.292
		c3.104,0,5.888,2.698,5.888,7.224c0,5.163-3.278,7.6-6.439,7.6c-1.711,0-3.046-0.696-3.684-1.625h-0.058v7.049h-4.409V71.747z
		 M171.823,75.083c0,0.349,0.029,0.639,0.087,0.929c0.29,1.189,1.305,2.088,2.582,2.088c1.915,0,3.046-1.595,3.046-4.003
		c0-2.262-1.016-3.974-2.988-3.974c-1.248,0-2.35,0.929-2.64,2.233c-0.058,0.232-0.087,0.522-0.087,0.783V75.083z"/>
	<path d="M188.234,75.46c0.145,1.856,1.944,2.728,4.003,2.728c1.509,0,2.727-0.203,3.916-0.609l0.58,2.987
		c-1.45,0.609-3.22,0.899-5.134,0.899c-4.815,0-7.571-2.784-7.571-7.252c0-3.597,2.263-7.57,7.165-7.57
		c4.583,0,6.323,3.567,6.323,7.077c0,0.755-0.087,1.422-0.145,1.77L188.234,75.46z M193.427,72.443c0-1.044-0.464-2.871-2.466-2.871
		c-1.885,0-2.639,1.711-2.755,2.871H193.427z"/>
	<path d="M204.562,72.995h0.058c0.319-0.609,0.667-1.189,1.016-1.712l2.872-4.293h5.308l-5.076,5.743l5.801,8.441h-5.424
		l-3.452-5.83l-1.102,1.421v4.409h-4.409V60.58h4.409V72.995z"/>
	<path d="M221.993,81.494c-4.148,0-7.339-2.727-7.339-7.31c0-4.584,3.017-7.514,7.6-7.514c4.322,0,7.223,2.988,7.223,7.281
		c0,5.163-3.684,7.542-7.455,7.542H221.993z M222.08,78.332c1.741,0,2.814-1.711,2.814-4.264c0-2.089-0.812-4.235-2.814-4.235
		c-2.088,0-2.9,2.146-2.9,4.264c0,2.408,1.015,4.235,2.872,4.235H222.08z"/>
	<path d="M232.229,71.66c0-2.088-0.029-3.451-0.116-4.67h3.771l0.174,2.64h0.116c0.726-2.088,2.437-2.959,3.829-2.959
		c0.406,0,0.609,0.029,0.928,0.088v4.147c-0.377-0.058-0.725-0.116-1.218-0.116c-1.625,0-2.727,0.842-3.017,2.233
		c-0.058,0.29-0.087,0.609-0.087,0.986v7.165H232.2L232.229,71.66z"/>
	<path d="M243.191,71.747c0-1.856-0.058-3.422-0.116-4.757h3.829l0.203,1.973h0.058c1.044-1.479,2.669-2.292,4.729-2.292
		c3.104,0,5.888,2.698,5.888,7.224c0,5.163-3.278,7.6-6.439,7.6c-1.711,0-3.046-0.696-3.684-1.625h-0.058v7.049h-4.409V71.747z
		 M247.601,75.083c0,0.349,0.029,0.639,0.087,0.929c0.29,1.189,1.305,2.088,2.582,2.088c1.915,0,3.046-1.595,3.046-4.003
		c0-2.262-1.016-3.974-2.988-3.974c-1.248,0-2.35,0.929-2.64,2.233c-0.058,0.232-0.087,0.522-0.087,0.783V75.083z"/>
	<path d="M260.504,77.346c0.812,0.493,2.495,1.044,3.8,1.044c1.334,0,1.885-0.435,1.885-1.16c0-0.754-0.435-1.102-2.06-1.653
		c-2.958-0.957-4.09-2.581-4.061-4.234c0-2.669,2.263-4.671,5.772-4.671c1.653,0,3.104,0.406,3.974,0.842l-0.754,3.017
		c-0.638-0.319-1.885-0.783-3.075-0.783c-1.073,0-1.682,0.436-1.682,1.131c0,0.696,0.551,1.045,2.292,1.653
		c2.697,0.899,3.8,2.292,3.829,4.352c0,2.669-2.06,4.612-6.12,4.612c-1.856,0-3.51-0.436-4.583-1.016L260.504,77.346z"/>
</g>
<g>
</g>
</svg>
